<svg xmlns="http://www.w3.org/2000/svg" xmlns:xlink="http://www.w3.org/1999/xlink" version="1.1" x="0px" y="0px" viewBox="0 0 100 125" enable-background="new 0 0 100 100" xml:space="preserve"><path fill="#000000" d="M73.346,80.75H27.558c-4.332,0-7.855-3.524-7.855-7.855V27.106c0-4.332,3.524-7.856,7.855-7.856h45.788  c4.331,0,7.855,3.524,7.855,7.856v45.788C81.201,77.226,77.677,80.75,73.346,80.75z M27.558,25.25c-1.023,0-1.855,0.833-1.855,1.856  v45.788c0,1.023,0.833,1.855,1.855,1.855h45.788c1.023,0,1.855-0.832,1.855-1.855V27.106c0-1.023-0.832-1.856-1.855-1.856H27.558z"/><path fill="#000000" d="M56.873,60.904c0,0.221-0.094,0.427-0.257,0.579c-2.391,2.252-4.101,3.655-5.221,4.293  c-1.196,0.686-2.179,1.017-3.01,1.017c-0.821,0-1.497-0.271-2-0.816c-0.485-0.519-0.734-1.224-0.734-2.09  c0-2.215,1.254-7.361,3.842-15.727c0.041-0.146,0.075-0.278,0.098-0.406c-0.098,0.047-0.208,0.105-0.335,0.185  c-0.214,0.133-0.855,0.635-2.745,2.479c-0.282,0.282-0.733,0.305-1.051,0.063l-1.121-0.868c-0.173-0.131-0.289-0.34-0.306-0.565  c-0.018-0.221,0.057-0.445,0.208-0.611c1.733-1.914,3.357-3.301,4.819-4.126c1.532-0.861,2.825-1.284,3.953-1.284  c0.733,0,1.322,0.18,1.756,0.545c0.473,0.391,0.722,0.934,0.722,1.583c0,0.421-0.202,1.513-1.675,6.463  c-2.109,7.073-2.611,9.638-2.646,10.528c0.398-0.238,1.341-0.906,3.356-2.801c0.312-0.296,0.803-0.292,1.114,0.009l0.989,0.967  C56.784,60.472,56.873,60.685,56.873,60.904z"/><path fill="#000000" d="M56.756,35.866c0,0.946-0.336,1.791-0.988,2.507c-0.67,0.734-1.454,1.109-2.328,1.109  c-0.721,0-1.362-0.267-1.853-0.781c-0.48-0.501-0.73-1.161-0.73-1.947c0-0.969,0.318-1.802,0.948-2.489  c0.646-0.699,1.438-1.058,2.346-1.058c0.734,0,1.381,0.266,1.866,0.769C56.508,34.472,56.756,35.108,56.756,35.866z"/><text x="0" y="115" fill="#000000" font-size="5px" font-weight="bold" font-family="'Helvetica Neue', Helvetica, Arial-Unicode, Arial, Sans-serif">Created by ChangHoon Baek</text><text x="0" y="120" fill="#000000" font-size="5px" font-weight="bold" font-family="'Helvetica Neue', Helvetica, Arial-Unicode, Arial, Sans-serif">from the Noun Project</text></svg>