<svg xmlns="http://www.w3.org/2000/svg" xmlns:xlink="http://www.w3.org/1999/xlink" version="1.1" x="0px" y="0px" viewBox="0 0 48 60" enable-background="new 0 0 48 48" xml:space="preserve"><g><path fill="none" stroke="#000000" stroke-width="2" stroke-linecap="round" stroke-miterlimit="10" d="M41.814,42.547   c0,2.449-2.004,4.453-4.453,4.453H10.639c-2.45,0-4.454-2.004-4.454-4.453V5.454C6.185,3.004,8.189,1,10.639,1h26.722   c2.449,0,4.453,2.004,4.453,4.454V42.547z"/><path fill="none" stroke="#000000" stroke-width="2" stroke-linecap="round" stroke-miterlimit="10" d="M36.127,13.21   c0,1.104-1.002,2.008-2.226,2.008H14.099c-1.225,0-2.226-0.903-2.226-2.008V8.026c0-1.104,1.001-2.007,2.226-2.007h19.802   c1.224,0,2.226,0.903,2.226,2.007V13.21z"/><g><g><rect x="11.788" y="20.404" fill="none" stroke="#000000" stroke-width="2" stroke-linecap="round" stroke-miterlimit="10" width="5.815" height="4.868"/><rect x="21.092" y="20.404" fill="none" stroke="#000000" stroke-width="2" stroke-linecap="round" stroke-miterlimit="10" width="5.816" height="4.868"/><rect x="30.397" y="20.404" fill="none" stroke="#000000" stroke-width="2" stroke-linecap="round" stroke-miterlimit="10" width="5.815" height="4.868"/></g><g><rect x="11.788" y="28.921" fill="none" stroke="#000000" stroke-width="2" stroke-linecap="round" stroke-miterlimit="10" width="5.815" height="4.867"/><rect x="21.092" y="28.921" fill="none" stroke="#000000" stroke-width="2" stroke-linecap="round" stroke-miterlimit="10" width="5.816" height="4.867"/><rect x="30.397" y="28.921" fill="none" stroke="#000000" stroke-width="2" stroke-linecap="round" stroke-miterlimit="10" width="5.815" height="4.867"/></g><g><rect x="11.788" y="37.336" fill="none" stroke="#000000" stroke-width="2" stroke-linecap="round" stroke-miterlimit="10" width="5.815" height="4.867"/><rect x="21.092" y="37.336" fill="none" stroke="#000000" stroke-width="2" stroke-linecap="round" stroke-miterlimit="10" width="5.816" height="4.867"/><rect x="30.397" y="37.336" fill="none" stroke="#000000" stroke-width="2" stroke-linecap="round" stroke-miterlimit="10" width="5.815" height="4.867"/></g></g></g><text x="0" y="63" fill="#000000" font-size="5px" font-weight="bold" font-family="'Helvetica Neue', Helvetica, Arial-Unicode, Arial, Sans-serif">Created by Creative Stall</text><text x="0" y="68" fill="#000000" font-size="5px" font-weight="bold" font-family="'Helvetica Neue', Helvetica, Arial-Unicode, Arial, Sans-serif">from the Noun Project</text></svg>